# xmcd
#
# Track frame offsets:
# 150
# 17105
# 24890
# 44492
# 50852
# 62875
# 69072
# 76800
# 86255
# 92297
# 98040
# 104892
# 112145
# 119907
# 126660
# 133527
# 140700
# 147455
# 152902
#
# Disc length: 2103 seconds
#
#
# Revision: 1
# Processed by: cddbd v1.5.2PL0 Copyright (c) Steve Scherf et al.
# Submitted via: FreeRIP 2.96 
#
DISCID=18083513
DTITLE=CD 347 - Stereo Spectacular - Demonstration and Sound Effects
DYEAR=1990
DGENRE=Lo-Fi
TTITLE0=Introduction
TTITLE1=Clean Sweeps
TTITLE2=Jet Take-off
TTITLE3=Sport Cars
TTITLE4=Submarine
TTITLE5=New York
TTITLE6=Elevator
TTITLE7=Two at Time
TTITLE8=Pot-pourri
TTITLE9=Entry of the Gladiators
TTITLE10=Bill Bailey
TTITLE11=Greenleaves
TTITLE12=Funeral March of a Marionette
TTITLE13=Pearl Fischers
TTITLE14=Limbo
TTITLE15=Barbara Polka
TTITLE16=Poema do Adeus
TTITLE17=A Yankkee Ship
TTITLE18=La Trompeta del Diablo
EXTD=########################\n# João Müller - Itajaí - SC - Brasil  #\n#          22 de abril de 2007           #\n#   Coleção Particular Especial     #\n########################
EXTT0=01/04/1999 Cambuí/MG
EXTT1=01/04/1999 Cambuí/MG
EXTT2=01/04/1999 Cambuí/MG
EXTT3=01/04/1999 Cambuí/MG
EXTT4=01/04/1999 Cambuí/MG
EXTT5=01/04/1999 Cambuí/MG
EXTT6=01/04/1999 Cambuí/MG
EXTT7=01/04/1999 Cambuí/MG
EXTT8=01/04/1999 Cambuí/MG
EXTT9=01/04/1999 Cambuí/MG
EXTT10=01/04/1999 Cambuí/MG
EXTT11=01/04/1999 Cambuí/MG
EXTT12=01/04/1999 Cambuí/MG
EXTT13=01/04/1999 Cambuí/MG
EXTT14=01/04/1999 Cambuí/MG
EXTT15=01/04/1999 Cambuí/MG
EXTT16=01/04/1999 Cambuí/MG
EXTT17=01/04/1999 Cambuí/MG
EXTT18=01/04/1999 Cambuí/MG
PLAYORDER=
